<?xml version="1.0" standalone="no"?>
<!DOCTYPE svg PUBLIC "-//W3C//DTD SVG 20010904//EN"
 "http://www.w3.org/TR/2001/REC-SVG-20010904/DTD/svg10.dtd">
<svg version="1.0" xmlns="http://www.w3.org/2000/svg"
 width="1200.000000pt" height="280.000000pt" viewBox="0 0 1200.000000 280.000000"
 preserveAspectRatio="xMidYMid meet">

<g transform="translate(0.000000,280.000000) scale(0.100000,-0.100000)"
fill="#000000" stroke="none">
<path d="M4692 2192 c-10 -6 -12 -186 -10 -863 l3 -854 430 0 430 1 85 28
c240 79 421 235 525 450 70 145 80 195 79 386 0 152 -3 172 -28 250 -97 298
-322 505 -636 586 -54 14 -133 18 -465 21 -220 2 -406 0 -413 -5z m813 -156
c103 -28 235 -99 308 -167 158 -144 237 -323 237 -534 0 -325 -197 -592 -515
-696 -65 -21 -90 -23 -372 -27 l-303 -4 0 727 0 727 293 -5 c228 -3 305 -8
352 -21z"/>
<path d="M6528 2189 c-17 -9 -18 -61 -18 -852 0 -642 3 -846 12 -855 9 -9 169
-12 660 -12 l647 0 12 21 c14 27 6 99 -13 110 -7 5 -264 9 -570 9 l-558 0 0
325 0 325 535 0 c518 0 535 1 545 19 5 11 10 35 10 55 0 69 27 66 -561 66
l-529 0 0 330 0 330 565 0 c548 0 565 1 575 19 15 28 12 73 -6 99 l-15 22
-637 0 c-414 -1 -643 -4 -654 -11z"/>
<path d="M8136 2184 c-9 -8 -16 -19 -16 -24 0 -10 5 -16 352 -468 137 -177
251 -329 254 -336 3 -7 -131 -190 -297 -407 -167 -217 -309 -406 -318 -420
-26 -45 -4 -59 94 -59 l83 0 277 358 c152 196 280 358 284 360 4 1 132 -160
285 -358 l277 -360 82 0 c111 0 132 21 83 84 -146 188 -606 792 -606 796 0 3
107 145 238 315 362 472 372 486 372 495 0 5 -7 16 -16 24 -24 24 -154 22
-180 -2 -10 -11 -134 -168 -274 -349 -140 -182 -258 -329 -262 -327 -3 2 -120
152 -258 332 -139 180 -261 335 -272 345 -27 23 -159 25 -182 1z"/>
<path d="M9892 2188 c-7 -7 -12 -19 -12 -27 0 -9 138 -194 305 -411 168 -217
305 -397 305 -400 0 -3 -142 -190 -315 -415 -173 -226 -315 -417 -315 -426 0
-30 23 -39 101 -39 55 0 82 4 92 15 9 8 136 170 283 360 147 190 271 344 275
343 4 -2 130 -163 281 -358 l273 -355 83 -3 c84 -3 112 6 112 33 0 11 -481
649 -596 792 -19 23 -34 46 -34 51 0 5 135 186 300 401 165 216 300 400 300
409 0 33 -22 42 -96 42 -54 0 -77 -4 -92 -17 -10 -10 -133 -165 -271 -345
-139 -180 -255 -329 -259 -332 -4 -2 -122 145 -262 327 -140 182 -263 339
-272 349 -14 14 -34 18 -96 18 -47 0 -83 -5 -90 -12z"/>
</g>
</svg>
